<svg xmlns="http://www.w3.org/2000/svg" width="23.97" height="21.03" viewBox="0 0 23.97 21.03">
  <defs>
    <style>
      .cls-1 {
        fill: #76b900;
        fill-rule: evenodd;
      }
    </style>
  </defs>
  <path id="bundle-icon.svg" class="cls-1" d="M4345.84,1954.25a1.1,1.1,0,0,1,.8.33,1.079,1.079,0,0,1,.33.8v6a1.079,1.079,0,0,1-.33.8,1.1,1.1,0,0,1-.8.33h-0.37v3.76a2.253,2.253,0,0,1-2.25,2.25h-16.49a2.253,2.253,0,0,1-2.25-2.25v-3.76h-0.37a1.1,1.1,0,0,1-.8-0.33,1.109,1.109,0,0,1-.32-0.8v-6a1.109,1.109,0,0,1,.32-0.8,1.1,1.1,0,0,1,.8-0.33h2.81a4.018,4.018,0,0,1-.94-2.63,4.166,4.166,0,0,1,4.13-4.13,4.416,4.416,0,0,1,2.57.8,10.3,10.3,0,0,1,2.3,2.48,10.1,10.1,0,0,1,2.29-2.48,4.424,4.424,0,0,1,2.58-.8,4.135,4.135,0,0,1,3.18,6.76h2.81Zm-9.93-.89-0.09.14h4.03a1.8,1.8,0,0,0,1.33-.54,1.933,1.933,0,0,0,0-2.68,1.8,1.8,0,0,0-1.33-.54,1.962,1.962,0,0,0-.99.24,3.8,3.8,0,0,0-1.19,1.01A24.231,24.231,0,0,0,4335.91,1953.36Zm-5.8-3.62a1.88,1.88,0,1,0,0,3.76h4.02l-0.09-.14a22.691,22.691,0,0,0-1.76-2.37,3.8,3.8,0,0,0-1.19-1.01A1.95,1.95,0,0,0,4330.11,1949.74Zm-3.38,16.53h7.12v-9.77h-8.62v3.76h7.5v2.25h-6v3.76Zm17.99-6.01v-3.76h-8.62v9.77h7.12v-3.76h-6v-2.25h7.5Z" transform="translate(-4323 -1947.5)"/>
</svg>
