<svg id="Layer_1" data-name="Layer 1" xmlns="http://www.w3.org/2000/svg" width="39.1" height="22.1" viewBox="0 0 39.1 22.1"><defs><style>.cls-1{fill:#fff;}</style></defs><title>GPU-icon</title><path class="cls-1" d="M2.7,0H.2A.22.22,0,0,0,0,.2V.5A.22.22,0,0,0,.2.7H1.5V13.8l.3,1.6a.22.22,0,0,0,.2.2h.2a.22.22,0,0,0,.2-.2l.3-1.6V.3h0V.2C2.9.1,2.8,0,2.7,0Z"/><path class="cls-1" d="M33.3,10.6h0a2.7,2.7,0,1,0-.2,5.4,2.69,2.69,0,0,0,2.8-2.6v-.1A2.55,2.55,0,0,0,33.3,10.6Z"/><path class="cls-1" d="M38.4,7.1H27.1V1.3a.58.58,0,0,0-.6-.6H3.5V13.3H5.3v1.5a.32.32,0,0,0,.3.3h7.7v5.2l.3,1.6a.22.22,0,0,0,.2.2H14a.22.22,0,0,0,.2-.2l.3-1.6V15H15a.32.32,0,0,0,.3-.3V13.2h.1v6.4h1.8v1.5a.32.32,0,0,0,.3.3h9.4a.32.32,0,0,0,.3-.3V19.6H38.5a.65.65,0,0,0,.6-.6V7.7A.66.66,0,0,0,38.4,7.1ZM21.3,2.9a4,4,0,0,1,4.1,3.9V7H24.1V6.8a2.61,2.61,0,0,0-2.6-2.7h0a2.76,2.76,0,0,0-2.8,2.6v.2H17.3A4.08,4.08,0,0,1,21.3,2.9ZM33.4,17.3h0a4.1,4.1,0,0,1-4.2-3.9,4,4,0,0,1,8-.2v.1A3.85,3.85,0,0,1,33.4,17.3Z"/></svg>